Coordinates
version=1
nRows=16
nColumns=36
inDegrees=yes

Units are S.I. units (second, meters, Newtons, ...)
If the header above contains a line with 'inDegrees', this indicates whether rotational values are in degrees (yes) or radians (no).

endheader
time	pelvis_tilt	pelvis_list	pelvis_rotation	pelvis_tx	pelvis_ty	pelvis_tz	hip_flexion_r	hip_adduction_r	hip_rotation_r	knee_angle_r	knee_angle_r_beta	ankle_angle_r	subtalar_angle_r	mtp_angle_r	hip_flexion_l	hip_adduction_l	hip_rotation_l	knee_angle_l	knee_angle_l_beta	ankle_angle_l	subtalar_angle_l	mtp_angle_l	lumbar_extension	lumbar_bending	lumbar_rotation	arm_flex_r	arm_add_r	arm_rot_r	elbow_flex_r	pro_sup_r	arm_flex_l	arm_add_l	arm_rot_l	elbow_flex_l	pro_sup_l
      0.00000000	      0.72349690	      4.34107037	     12.83894266	     -0.19682191	      0.86656716	     -0.25622560	     26.67095193	     -5.21405573	     -2.06599437	      3.45859189	      0.06036382	      8.26682246	     -8.45188283	     -5.42882505	    -18.65932297	      3.62031694	     -3.63353768	     13.78761269	      0.24063924	     19.35290937	     18.36407418	     -5.42882505	    -12.44904957	     -3.25437032	    -19.01517268	     -6.09044111	     -4.53274053	     -9.74577159	     21.32793707	     83.37960620	     25.06483209	    -13.50472901	      8.97733320	     51.25427471	     98.40022285
      0.01000000	      0.98002836	      3.94174108	     13.05832729	     -0.18007349	      0.86513790	     -0.25650291	     26.59747790	     -4.64174998	     -1.34045309	      5.17776651	      0.09036907	      6.68765049	    -10.47102360	     -5.56702135	    -19.18536072	      2.65223299	     -4.16294030	     15.22303689	      0.26569212	     18.94112335	     18.76591311	     -5.56702135	    -12.47284240	     -2.58864397	    -18.89054445	     -6.15663909	     -4.67725555	     -9.60933178	     20.64787639	     83.70155204	     24.91398250	    -13.33840841	      9.31094324	     51.36733954	     99.00312284
      0.02000000	      1.32271881	      3.55682801	     13.30392779	     -0.16321884	      0.86390589	     -0.25686054	     26.51162198	     -4.11798360	     -1.40117775	      7.10169435	      0.12394795	      5.72174637	    -11.07469938	     -5.58908063	    -19.81349147	      1.72155417	     -4.36811188	     16.59875457	      0.28970292	     18.08692347	     18.46206775	     -5.58908063	    -12.60560491	     -1.89311357	    -18.76981984	     -6.24748131	     -4.79506021	     -9.70846659	     20.14199540	     83.70403882	     24.71438957	    -13.11268101	      9.51842868	     51.57217986	     99.13082917
      0.03000000	      1.61790655	      3.14261180	     13.49262762	     -0.14618215	      0.86281820	     -0.25709122	     26.34332173	     -3.50406112	     -1.18320433	      8.82180782	      0.15396959	      4.71904667	    -11.47849679	     -5.60053813	    -20.34862801	      0.82862229	     -4.25747484	     18.02250558	      0.31455206	     17.18410261	     18.25302249	     -5.60053813	    -12.66688313	     -1.14520996	    -18.62047079	     -6.31736124	     -4.91512115	     -9.77739601	     19.75283691	     83.69533024	     24.41471425	    -12.93802797	      9.69776275	     51.66977257	     99.20730074
      0.04000000	      1.55186066	      2.74518607	     13.56908324	     -0.12901058	      0.86151818	     -0.25692275	     26.56763239	     -2.81621830	     -0.74949067	     10.42835457	      0.18200912	      1.06278507	    -15.35159371	     -5.69705537	    -20.13965773	     -0.01213930	     -4.86871083	     20.07106859	      0.35030623	     15.61764570	     17.33316964	     -5.69705537	    -12.27161025	     -0.60884137	    -18.34210341	     -6.30246331	     -5.02623186	     -9.69875286	     18.81560865	     83.82316421	     23.87459132	    -12.82721222	     10.12096789	     51.73054672	     99.68577156
      0.05000000	      1.89466978	      2.35686981	     13.61470849	     -0.11168033	      0.86110452	     -0.25686496	     26.32793317	     -2.16166683	     -1.25465235	     12.20093223	      0.21294644	     -0.31215811	    -15.90895672	     -5.71568424	    -20.27125658	     -0.90431219	     -5.25297962	     22.21611681	      0.38774439	     13.90364511	     16.55187090	     -5.71568424	    -12.40964047	      0.08483985	    -17.92548254	     -6.35356784	     -5.15411549	     -9.69818907	     18.45874921	     83.82233433	     23.38084053	    -12.56221368	     10.26246078	     51.78923842	     99.77955760
      0.06000000	      1.86307969	      1.97184412	     13.46939718	     -0.09436981	      0.86070620	     -0.25646097	     26.37034057	     -1.36827307	     -0.79978026	     13.70087683	      0.23912541	     -3.55015465	    -19.07076381	     -5.82252311	    -19.83060804	     -1.46867080	     -5.07155094	     24.55983820	      0.42865004	     11.22789835	     14.09342469	     -5.82252311	    -12.09119245	      0.64846942	    -17.50161432	     -6.24326482	     -5.31029937	     -9.25108802	     17.77864403	     83.88926798	     22.63183160	    -12.42109925	     10.42713682	     51.61125910	    100.17279353
      0.07000000	      2.17234183	      1.58800865	     13.31703724	     -0.07702965	      0.86107181	     -0.25599129	     26.06237050	     -0.62280236	     -1.23012043	     15.45656040	      0.26976787	     -4.42675471	    -19.52525030	     -5.84018174	    -19.42027375	     -2.31197082	     -5.63385269	     27.44870435	      0.47907027	      8.74363496	     12.96884194	     -5.84018174	    -12.24080066	      1.28896036	    -16.86287494	     -6.16781915	     -5.42243532	     -9.19768876	     17.42026148	     83.86967572	     21.95918706	    -12.13951775	     10.53217139	     51.51317532	    100.22545458
      0.08000000	      2.08296161	      1.26143243	     12.95608521	     -0.05994678	      0.86149336	     -0.25530438	     26.17532805	      0.12965248	     -0.89518169	     17.25408273	      0.30114055	     -5.92890434	    -21.21029188	     -5.90787365	    -18.44474017	     -2.65594403	     -5.39200341	     30.36079476	      0.52989583	      4.67977606	      9.29234207	     -5.90787365	    -11.93255571	      1.74346846	    -16.18752622	     -5.91716439	     -5.58562952	     -8.62864030	     16.78183253	     83.84931360	     21.12493578	    -11.91575090	     10.62752634	     51.02672051	    100.36345651
      0.09000000	      2.28031439	      0.83000087	     12.51282889	     -0.04307282	      0.86262560	     -0.25445495	     25.90986388	      1.04163868	     -0.80927628	     19.00712250	      0.33173687	     -6.33313684	    -22.09832211	     -5.97628850	    -17.47562821	     -3.27779648	     -5.66395012	     33.65847513	      0.58745121	      0.65668280	      6.34987217	     -5.97628850	    -12.01553333	      2.35677784	    -15.34563677	     -5.57241953	     -5.76914414	     -7.92331937	     16.27231389	     83.79699379	     20.33475755	    -11.63068439	     10.62142567	     50.56201844	    100.45471097
      0.10000000	      2.50922985	      0.22817485	     11.94758043	     -0.02639720	      0.86407974	     -0.25336892	     25.53381860	      2.15373127	     -0.76603300	     20.62661010	      0.36000226	     -6.00136455	    -22.42877736	     -6.00453376	    -16.26624692	     -4.19570078	     -6.40247551	     37.27383469	      0.65055114	     -3.30799434	      4.24810018	     -6.00453376	    -12.13267005	      3.12291892	    -14.34742650	     -5.13978775	     -5.94713296	     -7.57254109	     15.94113454	     83.76854848	     19.50816292	    -11.28533135	     10.54886477	     49.98636669	    100.43549066
      0.11000000	      2.67908482	     -0.21563687	     11.30956946	     -0.01026392	      0.86592430	     -0.25222818	     25.07565694	      3.08937104	     -0.54833431	     22.07745164	      0.38532422	     -5.25331707	    -22.40503012	     -6.04290750	    -14.83933317	     -4.74363591	     -6.68180233	     40.93207637	      0.71439950	     -7.97145903	      0.74070047	     -6.04290750	    -12.29871741	      3.66865339	    -13.30165116	     -4.61352586	     -6.13780660	     -6.89764781	     15.56001289	     83.76329857	     18.78477641	    -10.91625914	     10.34930279	     49.10753199	    100.38221765
      0.12000000	      3.05705528	     -0.79988603	     10.69384924	      0.00554785	      0.86824231	     -0.25105401	     24.18143605	      4.15124221	     -0.68387757	     23.05649411	      0.40241174	     -4.22925310	    -22.45370955	     -6.06105131	    -13.43071669	     -5.62908528	     -7.20704099	     44.77359264	      0.78144661	    -11.26768787	     -1.08111899	     -6.06105131	    -12.72091571	      4.34796041	    -12.14347522	     -4.02203753	     -6.31582758	     -6.49607312	     15.38239817	     83.77946223	     18.06437478	    -10.48036894	     10.16517173	     48.43013320	    100.31735352
      0.13000000	      3.24388635	     -1.06933278	     10.01090204	      0.02094634	      0.87078917	     -0.25007221	     23.40006226	      4.72934814	     -0.89798168	     24.07438877	      0.42017735	     -1.87740045	    -20.18796652	     -6.22165969	    -11.81876426	     -5.77647822	     -7.11294968	     48.23870094	      0.84192416	    -15.69575069	     -5.39653736	     -6.22165969	    -12.97915380	      4.61593193	    -11.26686831	     -3.10984150	     -6.65559746	     -3.57506889	     14.60738086	     83.72288153	     17.26922383	    -10.11588697	      9.61241142	     47.26067342	    100.31101063
      0.14000000	      3.41414467	     -1.55352019	      9.35145504	      0.03606456	      0.87342676	     -0.24877212	     22.34509605	      5.63412309	     -0.78602191	     24.36006050	      0.42516326	     -0.84338628	    -19.66070813	     -6.26191617	     -9.98200438	     -6.35019275	     -7.25524381	     51.87170465	      0.90533203	    -17.87103709	     -7.35036780	     -6.26191617	    -13.21273835	      5.06713395	    -10.15245706	     -2.46120258	     -6.79639186	     -3.01864572	     14.70291475	     83.70205877	     16.57985648	     -9.67163413	      9.10756038	     45.95459485	    100.15948469
      0.15000000	      3.63668275	     -1.82953942	      8.81433887	      0.05084930	      0.87642436	     -0.24786251	     21.05594412	      6.17703123	     -1.02349787	     24.39168973	      0.42571530	      0.87948603	    -18.17347209	     -6.35273720	     -8.12837985	     -6.65041962	     -7.22457633	     55.26817197	      0.96461157	    -19.05699149	     -9.00064324	     -6.35273720	    -13.54033986	      5.31384690	     -9.28307991	     -1.65086517	     -7.01364918	     -1.77566901	     14.75486596	     83.76238021	     15.83048695	     -9.26503424	      8.69813759	     44.75567497	    100.03098086
